<?xml version="1.0" standalone="no"?>
<!DOCTYPE svg PUBLIC "-//W3C//DTD SVG 20010904//EN"
 "http://www.w3.org/TR/2001/REC-SVG-20010904/DTD/svg10.dtd">
<svg version="1.0" xmlns="http://www.w3.org/2000/svg"
 width="700.000000pt" height="700.000000pt" viewBox="0 0 700.000000 700.000000"
 preserveAspectRatio="xMidYMid meet">
<metadata>
Created by potrace 1.11, written by Peter Selinger 2001-2013
</metadata>
<g transform="translate(0.000000,700.000000) scale(0.100000,-0.100000)"
fill="#000000" stroke="none">
<path d="M5850 6849 c-157 -21 -326 -132 -410 -268 -17 -28 -37 -51 -44 -51
-10 0 -255 53 -346 75 -28 7 -155 35 -200 45 -25 5 -94 21 -155 35 -60 14
-182 42 -270 61 -88 20 -209 47 -270 61 -247 55 -271 54 -320 -11 -20 -27 -59
-175 -101 -381 -5 -24 -4 -21 -43 -200 -17 -77 -46 -212 -65 -300 -19 -88 -42
-189 -50 -225 -8 -36 -17 -78 -20 -95 -3 -16 -8 -39 -10 -50 -3 -11 -17 -74
-31 -140 -14 -66 -32 -147 -39 -180 -8 -33 -26 -116 -41 -185 -15 -69 -28
-132 -30 -140 -2 -8 -14 -61 -26 -117 l-22 -103 -41 -1 c-23 0 -52 -2 -66 -4
-14 -1 -66 -6 -117 -9 -50 -4 -102 -9 -115 -11 -13 -3 -47 -7 -76 -11 -29 -3
-63 -7 -75 -10 -12 -2 -71 -13 -132 -25 -114 -21 -281 -60 -338 -78 -17 -6
-77 -25 -132 -42 -298 -94 -680 -277 -878 -420 l-39 -28 -57 49 c-255 225
-638 258 -926 80 -173 -106 -303 -301 -349 -520 -17 -81 -14 -263 7 -345 46
-191 176 -370 345 -475 69 -43 72 -47 67 -75 -38 -196 -40 -451 -5 -633 34
-180 93 -351 177 -512 280 -534 808 -961 1513 -1224 88 -33 299 -99 352 -110
13 -3 43 -10 68 -17 25 -6 54 -12 65 -15 83 -16 175 -34 200 -39 17 -2 39 -7
50 -9 11 -2 49 -7 85 -11 36 -4 67 -8 70 -10 3 -2 48 -6 100 -10 52 -4 111 -9
130 -11 53 -6 476 -6 550 0 223 19 339 35 551 76 185 37 505 130 634 185 129
55 170 73 245 108 47 23 123 62 169 89 46 26 86 48 88 48 8 0 217 142 278 189
409 313 693 715 805 1139 12 42 23 92 26 111 3 18 7 42 9 53 19 94 25 306 14
423 -7 69 -9 80 -25 160 -4 22 -8 45 -9 50 0 6 18 20 40 33 152 88 283 247
344 417 44 123 49 340 11 474 -86 303 -322 519 -617 565 -236 36 -469 -30
-643 -182 l-50 -44 -83 55 c-198 130 -450 255 -692 342 -181 66 -479 146 -625
169 -19 3 -46 8 -60 11 -13 2 -42 7 -65 10 -22 3 -51 8 -65 10 -14 2 -54 7
-90 10 -36 4 -83 8 -105 11 -22 2 -83 6 -134 9 -52 3 -96 7 -98 9 -2 2 38 199
86 411 11 50 22 101 25 115 2 14 19 88 36 165 17 77 33 151 36 165 3 14 14 63
24 110 11 47 22 96 24 110 2 14 18 86 35 160 16 74 32 146 35 160 3 14 12 57
21 95 8 39 17 79 19 90 19 97 60 271 65 277 4 4 31 1 61 -7 30 -8 66 -16 80
-19 14 -2 84 -18 157 -35 72 -17 142 -32 155 -35 13 -2 55 -12 93 -21 39 -9
80 -19 93 -21 12 -3 62 -14 110 -25 48 -12 94 -22 102 -24 51 -11 381 -87 413
-96 34 -9 37 -13 37 -44 0 -47 19 -131 41 -182 10 -24 18 -46 18 -48 0 -3 19
-33 43 -66 192 -275 559 -334 823 -132 138 105 220 258 232 429 26 376 -292
682 -657 633z m-3496 -3565 c145 -37 293 -148 363 -275 132 -237 95 -527 -92
-714 -186 -187 -462 -226 -692 -99 -62 35 -146 110 -193 172 -84 114 -121 287
-96 451 17 112 101 261 193 340 57 50 172 109 245 127 74 17 199 17 272 -2z
m2531 7 c160 -31 306 -129 392 -266 70 -110 108 -299 83 -410 -5 -22 -11 -53
-14 -68 -12 -66 -81 -182 -152 -253 -200 -202 -508 -231 -740 -68 -108 76
-190 193 -229 329 -17 59 -24 203 -11 255 19 86 29 112 62 178 44 87 138 185
222 234 112 64 268 92 387 69z m-2507 -1763 c17 -13 57 -44 89 -71 110 -90
324 -177 543 -221 166 -33 256 -40 480 -41 204 0 304 7 431 30 46 9 98 18 114
21 65 11 264 78 336 113 85 42 159 91 204 134 49 46 83 60 137 55 88 -9 144
-94 119 -179 -23 -77 -217 -219 -411 -301 -179 -76 -415 -133 -645 -155 -101
-10 -445 -10 -550 0 -406 38 -780 176 -987 366 -80 73 -96 139 -51 209 38 61
134 81 191 40z"/>
</g>
</svg>
